<?xml version="1.0" encoding="utf-8"?>
<svg version="1.1" xmlns:xlink="http://www.w3.org/1999/xlink" width="22px" height="31px" xmlns="http://www.w3.org/2000/svg">
  <g transform="matrix(1 0 0 1 -32 -105 )">
    <path d="M 12.6184895833333 29.2683593749998  C 13.0672743055555 28.8889322916666  13.2916666666667 28.4328125000002  13.2916666666667 27.9000000000001  C 13.2916666666667 27.3671875  13.0672743055555 26.9110677083333  12.6184895833333 26.5316406249999  C 12.1697048611111 26.1522135416667  11.6302083333333 25.9625000000001  11 25.9625000000001  C 10.3697916666667 25.9625000000001  9.83029513888889 26.1522135416667  9.38151041666669 26.5316406249999  C 8.93272569444446 26.9110677083333  8.70833333333331 27.3671875  8.70833333333331 27.9000000000001  C 8.70833333333331 28.4328125000002  8.93272569444446 28.8889322916666  9.38151041666669 29.2683593749998  C 9.83029513888889 29.6477864583335  10.3697916666667 29.8375000000001  11 29.8375000000001  C 11.6302083333333 29.8375000000001  12.1697048611111 29.6477864583335  12.6184895833333 29.2683593749998  Z M 18.9778645833333 24.5699218750001  C 19.1592881944444 24.4165364583334  19.25 24.2348958333334  19 24.0250000000001  L 19 6.97499999999991  C 19.25 6.76510416666656  19.1592881944444 6.58346354166656  18.9778645833333 6.43007812499991  C 18.7964409722222 6.27669270833348  18.5815972222222 6.19999999999982  18.3333333333333 6.19999999999982  L 10.2666665972738 6.19999999999982  L 3.66666666666669 6.19999999999982  C 3.41840277777777 6.19999999999982  3.20355902777777 6.27669270833348  3.02213541666669 6.43007812499991  C 2.84071180555554 6.58346354166656  2.75 6.76510416666656  3 6.97499999999991  L 3 24.0250000000001  C 2.75 24.2348958333334  2.84071180555554 24.4165364583334  3.02213541666669 24.5699218750001  C 3.20355902777777 24.7233072916665  3.41840277777777 24.8000000000002  3.66666666666669 24.8000000000002  L 18.3333333333333 24.8000000000002  C 18.5815972222222 24.8000000000002  18.7964409722222 24.7233072916665  18.9778645833333 24.5699218750001  Z M 13.2916666666667 3.875  C 13.5972222222222 3.875  13.75 3.74583333333339  13.75 3.48750000000018  C 13.75 3.22916666666652  13.5972222222222 3.09999999999991  13.2916666666667 3.09999999999991  L 8.70833333333331 3.09999999999991  C 8.40277777777777 3.09999999999991  8.25 3.22916666666652  8.25 3.48750000000018  C 8.25 3.74583333333339  8.40277777777777 3.875  8.70833333333331 3.875  L 13.2916666666667 3.875  Z M 20.9114583333333 0.920312499999909  C 21.6371527777778 1.53385416666652  22 2.26041666666652  22 3.09999999999991  L 22 27.9000000000001  C 22 28.7395833333335  21.6371527777778 29.4661458333335  20.9114583333333 30.0796875000001  C 20.1857638888889 30.6932291666667  19.3263888888889 31  18.3333333333333 31  L 3.66666666666669 31  C 2.67361111111111 31  1.81423611111111 30.6932291666667  1.08854166666669 30.0796875000001  C 0.362847222222229 29.4661458333335  0 28.7395833333335  0 27.9000000000001  L 0 3.09999999999991  C 0 2.26041666666652  0.362847222222229 1.53385416666652  1.08854166666669 0.920312499999909  C 1.81423611111111 0.306770833333303  2.67361111111111 0  3.66666666666669 0  L 18.3333333333333 0  C 19.3263888888889 0  20.1857638888889 0.306770833333303  20.9114583333333 0.920312499999909  Z " fill-rule="nonzero" fill="#000000" stroke="none" transform="matrix(1 0 0 1 32 105 )" />
  </g>
</svg>