<?xml version="1.0" encoding="utf-8"?>
<svg version="1.1" xmlns:xlink="http://www.w3.org/1999/xlink" width="25px" height="26px" xmlns="http://www.w3.org/2000/svg">
  <g transform="matrix(1 0 0 1 -31 -174 )">
    <path d="M 6.94444444444443 8.27272727272725  L 6.94444444444443 12  L 18.0555555555556 12  L 18.0555555555556 8.27272727272725  C 18.0555555555556 6.967803030303  17.5130208333333 5.85369318181824  16.4279513888889 4.93039772727275  C 15.3428819444444 4.00710227272725  14.0335648148148 3.5454545454545  12.5 3.5454545454545  C 10.9664351851852 3.5454545454545  9.65711805555557 4.00710227272725  8.57204861111111 4.93039772727275  C 7.48697916666669 5.85369318181824  6.94444444444443 6.967803030303  6.94444444444443 8.27272727272725  Z M 24.3923611111111 12.3352272727273  C 24.7974537037037 12.6799242424242  25 13.0984848484848  25 13.5909090909092  L 25 24.2272727272727  C 25 24.719696969697  24.7974537037037 25.1382575757577  24.3923611111111 25.4829545454545  C 23.9872685185185 25.8276515151515  23.4953703703704 26  22.9166666666667 26  L 2.08333333333331 26  C 1.50462962962965 26  1.01273148148147 25.8276515151515  0.607638888888886 25.4829545454545  C 0.202546296296276 25.1382575757577  0 24.719696969697  0 24.2272727272727  L 0 13.5909090909092  C 0 13.0984848484848  0.202546296296276 12.6799242424242  0.607638888888886 12.3352272727273  C 1.01273148148147 11.9905303030303  1.50462962962965 11.8181818181818  2.08333333333331 11.8181818181818  L 2.77777777777777 11.8181818181818  L 2.77777777777777 8.27272727272725  C 2.77777777777777 6.00757575757575  3.73263888888889 4.0625  5.64236111111111 2.4375  C 7.55208333333331 0.8125  9.83796296296296 0  12.5 0  C 15.162037037037 0  17.4479166666667 0.8125  19.3576388888889 2.4375  C 21.2673611111111 4.0625  22.2222222222222 6.00757575757575  22.2222222222222 8.27272727272725  L 22.2222222222222 11.8181818181818  L 22.9166666666667 11.8181818181818  C 23.4953703703704 11.8181818181818  23.9872685185185 11.9905303030303  24.3923611111111 12.3352272727273  Z " fill-rule="nonzero" fill="#000000" stroke="none" transform="matrix(1 0 0 1 31 174 )" />
  </g>
</svg>