<?xml version="1.0" encoding="utf-8"?>
<svg version="1.1" xmlns:xlink="http://www.w3.org/1999/xlink" width="31px" height="20px" xmlns="http://www.w3.org/2000/svg">
  <g transform="matrix(1 0 0 1 -200 -47 )">
    <path d="M 28.6213727678572 18.046875  C 28.7309337797619 17.9569128787878  28.7857142857143 17.8503787878788  28.7857142857143 17.7272727272727  L 28.7857142857143 6.81818181818176  C 28.4166666666667 7.15909090909099  28.018787202381 7.47159090909099  27.5920758928572 7.75568181818176  C 24.5013020833334 9.70643939393926  22.0448288690476 11.3068181818182  20.22265625 12.5568181818182  C 19.6344866071428 12.9640151515152  19.1558779761905 13.28125  18.7868303571428 13.5085227272727  C 18.4177827380952 13.7357954545455  17.9189918154762 13.9654356060607  17.2904575892857 14.1974431818182  C 16.6619233630952 14.4294507575758  16.0708705357143 14.5454545454545  15.5172991071428 14.5454545454545  L 15.5 14.5454545454545  L 15.4827008928572 14.5454545454545  C 14.9291294642857 14.5454545454545  14.3380766369048 14.4294507575758  13.7095424107143 14.1974431818182  C 13.0810081845238 13.9654356060607  12.5822172619048 13.7357954545455  12.2131696428572 13.5085227272727  C 11.8441220238095 13.28125  11.3655133928572 12.9640151515152  10.77734375 12.5568181818182  C 8.95517113095241 11.3068181818182  6.49869791666663 9.70643939393926  3.40792410714283 7.75568181818176  C 2.98121279761904 7.47159090909099  2.58333333333337 7.15909090909099  2.21428571428572 6.81818181818176  L 2.21428571428572 17.7272727272727  C 2.21428571428572 17.8503787878788  2.26906622023807 17.9569128787878  2.37862723214283 18.046875  C 2.48818824404759 18.1368371212122  2.61793154761904 18.1818181818182  2.76785714285717 18  L 28.2321428571428 18  C 28.382068452381 18.1818181818182  28.5118117559524 18.1368371212122  28.6213727678572 18.046875  Z M 27.9813058035714 4.66619318181824  C 28.517578125 3.97964015151524  28.7857142857143 3.35700757575751  28.7857142857143 2.7982954545455  L 28.7857142857143 2.6420454545455  L 28.7857142857143 2.45028409090901  C 28.7857142857143 2.45028409090901  28.7828311011905 2.38873106060601  28.7770647321428 2.265625  C 28.7712983630952 2.14251893939399  28.7539992559524 2.08333333333326  28.7251674107143 2.08806818181824  C 28.6963355654762 2.092803030303  28.6646205357143 2.05018939393926  28.6300223214286 1.96022727272725  C 28.5954241071428 1.87026515151524  28.5435267857143 1.83475378787875  28.4743303571428 1.85369318181824  C 28.4051339285714 1.87263257575751  28.3244047619048 1.8607954545455  28.2321428571428 2  L 2.76785714285717 2  C 2.61793154761904 1.81818181818176  2.48818824404759 1.86316287878776  2.37862723214283 1.953125  C 2.26906622023807 2.04308712121224  2.21428571428572 2.14962121212125  2.21428571428572 2.27272727272725  C 2.21428571428572 3.86363636363649  3.06194196428572 5.20833333333326  4.75725446428572 6.30681818181824  C 6.98307291666663 7.74621212121224  9.29538690476193 9.24715909090901  11.6941964285714 10.809659090909  C 11.7633928571428 10.8570075757575  11.9652157738095 10.9966856060607  12.2996651785714 11.2286931818182  C 12.6341145833334 11.4607007575758  12.8993675595238 11.6382575757575  13.0954241071428 11.7613636363635  C 13.2914806547619 11.8844696969697  13.548084077381 12.0336174242425  13.865234375 12.2088068181818  C 14.182384672619 12.3839962121212  14.4735863095238 12.5142045454545  14.7388392857143 12.5994318181818  C 15.0040922619048 12.684659090909  15.2520461309524 12.7272727272727  15.4827008928572 12.7272727272727  L 15.5 12.7272727272727  L 15.5172991071428 12.7272727272727  C 15.7479538690476 12.7272727272727  15.9959077380952 12.684659090909  16.2611607142857 12.5994318181818  C 16.5264136904762 12.5142045454545  16.817615327381 12.3839962121212  17.134765625 12.2088068181818  C 17.451915922619 12.0336174242425  17.7085193452381 11.8844696969697  17.9045758928572 11.7613636363635  C 18.0828917572802 11.6493971456787  18.3184477956244 11.4923882893961  18.6112440078898 11.2903370675158  C 18.6403743651891 11.2702349485689  18.6700713030353 11.2496869866698  18.7003348214286 11.2286931818182  C 19.0347842261905 10.9966856060607  19.2366071428572 10.8570075757575  19.3058035714286 10.809659090909  C 21.7046130952381 9.24715909090901  24.0169270833334 7.74621212121224  26.2427455357143 6.30681818181824  C 26.8655133928572 5.89962121212125  27.4450334821428 5.35274621212125  27.9813058035714 4.66619318181824  Z M 30.1869419642857 0.667613636363512  C 30.7289806547619 1.11268939393926  31 1.64772727272725  31 2.27272727272725  L 31 17.7272727272727  C 31 18.3522727272727  30.7289806547619 18.8873106060607  30.1869419642857 19.3323863636365  C 29.6449032738095 19.7774621212122  28.9933035714286 20  28.2321428571428 20  L 2.76785714285717 20  C 2.00669642857144 20  1.35509672619048 19.7774621212122  0.813058035714278 19.3323863636365  C 0.271019345238074 18.8873106060607  0 18.3522727272727  0 17.7272727272727  L 0 2.27272727272725  C 0 1.64772727272725  0.271019345238074 1.11268939393926  0.813058035714278 0.667613636363512  C 1.35509672619048 0.222537878787762  2.00669642857144 0  2.76785714285717 0  L 28.2321428571428 0  C 28.9933035714286 0  29.6449032738095 0.222537878787762  30.1869419642857 0.667613636363512  Z " fill-rule="nonzero" fill="#000000" stroke="none" transform="matrix(1 0 0 1 200 47 )" />
  </g>
</svg>