<?xml version="1.0" encoding="utf-8"?>
<svg version="1.1" xmlns:xlink="http://www.w3.org/1999/xlink" width="9px" height="22px" xmlns="http://www.w3.org/2000/svg">
  <g transform="matrix(1 0 0 1 -150 -111 )">
    <path d="M 5.51953125 13.4921875  C 5.99368990384616 12.3331330128205  6.23076923076923 10.9383012820513  6.23076923076923 9.30769230769232  C 6.23076923076923 7.67708333333334  5.99368990384616 6.28225160256412  5.51953125 5.12319711538464  C 5.04537259615384 3.96414262820514  4.47475961538461 3.38461538461536  3.80769230769232 3.38461538461536  C 3.140625 3.38461538461536  2.57001201923077 3.96414262820514  2.09585336538461 5.12319711538464  C 1.62169471153848 6.28225160256412  1.38461538461539 7.67708333333334  1.38461538461539 9.30769230769232  C 1.38461538461539 10.9383012820513  1.62169471153848 12.3331330128205  2.09585336538461 13.4921875  C 2.57001201923077 14.6512419871795  3.140625 15.2307692307692  3.80769230769232 15.2307692307692  C 4.47475961538461 15.2307692307692  5.04537259615384 14.6512419871795  5.51953125 13.4921875  Z M 8.79987980769229 19.1177884615385  C 8.93329326923077 19.4439102564102  9 19.8405448717949  9 20.3076923076923  C 9 20.7660256410256  8.93149038461539 21.1626602564102  8.79447115384616 21.4975961538461  C 8.65745192307691 21.832532051282  8.49519230769232 22  8.30769230769229 22  C 8.11298076923077 22  7.95072115384616 21.832532051282  7.82091346153845 21.4975961538461  L 5.96574519230771 16.9759615384615  C 5.3203125 18.0689102564102  4.60096153846152 18.6153846153846  3.80769230769232 18.6153846153846  C 3.29206730769232 18.6153846153846  2.79897836538461 18.3707932692308  2.32842548076923 17.8816105769231  C 1.85787259615384 17.3924278846154  1.45222355769232 16.7313701923077  1.11147836538461 15.8984375  C 0.770733173076934 15.0655048076923  0.500300480769226 14.0739182692308  0.300180288461547 12.9236778846154  C 0.10006009615384 11.7734375  0 10.568108974359  0 9.30769230769232  C 0 8.04727564102564  0.10006009615384 6.84194711538464  0.300180288461547 5.69170673076923  C 0.500300480769226 4.54146634615387  0.770733173076934 3.54987980769232  1.11147836538461 2.71694711538464  C 1.45222355769232 1.88401442307691  1.85787259615384 1.22295673076923  2.32842548076923 0.733774038461547  C 2.79897836538461 0.244591346153868  3.29206730769232 0  3.80769230769232 0  C 4.32331730769229 0  4.81640625 0.244591346153868  5.28695913461539 0.733774038461547  C 5.75751201923077 1.22295673076923  6.16316105769229 1.88401442307691  6.50390625 2.71694711538464  C 6.84465144230771 3.54987980769232  7.11508413461539 4.54146634615387  7.31520432692307 5.69170673076923  C 7.51532451923077 6.84194711538464  7.61538461538461 8.04727564102564  7.61538461538461 9.30769230769232  C 7.61538461538461 11.2467948717949  7.39182692307691 13.0052083333333  6.94471153846155 14.5829326923077  L 8.79987980769229 19.1177884615385  Z " fill-rule="nonzero" fill="#000000" stroke="none" transform="matrix(1 0 0 1 150 111 )" />
  </g>
</svg>